<svg version="1.1" xmlns="http://www.w3.org/2000/svg" width="16" height="16" viewBox="0 0 16 16">
<g>
	<path d="M3.3,12.3c-0.3,0.4-0.6,0.8-1,1.1C2.2,13.6,2,13.8,1.8,14c-0.1,0.1-0.3,0.2-0.4,0.1c-0.1-0.1-0.2-0.2-0.2-0.4
		c0-0.8,0-1.5,0-2.3c0-0.1,0-0.1,0-0.2c-0.3-0.7-0.6-1.4-0.9-2.1C0.2,9,0.3,8.9,0.4,8.8c0.1-0.1,0.3-0.1,0.4,0
		c0.6,0.3,1.3,0.7,1.9,1c0,0,0.1,0,0.1,0.1c0,0,0-0.1,0.1-0.1c0.5-0.8,1.2-1.5,2-2.1C6.1,6.7,7.5,6.5,9,6.9c1.1,0.3,2,0.8,2.8,1.5
		c0.2,0.1,0.3,0.3,0.4,0.5c0.2,0.2,0.2,0.4,0.1,0.6c-0.1,0.4-0.3,0.8-0.5,1.1c-0.5,0.8-1.1,1.5-1.8,2c-1.3,1-2.8,1.2-4.3,0.7
		C4.8,13.2,4.1,12.8,3.3,12.3C3.4,12.3,3.3,12.3,3.3,12.3z M9.6,9.9c0-0.3-0.2-0.5-0.5-0.5c-0.3,0-0.5,0.2-0.5,0.5
		c0,0.3,0.2,0.5,0.5,0.5C9.4,10.4,9.6,10.1,9.6,9.9z"/>
	<path d="M15.1,4.4c0.1,0.2,0.2,0.4,0.3,0.6c0.1,0.2,0.2,0.3,0.3,0.5c0,0.1,0,0.1,0,0.1c-0.6,0.4-1.2,0.5-1.9,0.4
		c-0.7-0.1-1.4-0.5-1.9-1.1c-0.2-0.3-0.5-0.6-0.7-0.9c-0.3-0.4-0.5-0.7-0.8-1.1C10.2,2.6,10,2.2,9.7,1.9c0,0,0,0,0-0.1
		c0,0,0.1,0,0.1,0c0.9,0.2,1.8,0.4,2.7,0.6c0.4,0.1,0.9,0.2,1.3,0.3c0,0,0.1,0,0.1,0c0,0,0,0.1-0.1,0.1c-0.4,0.3-0.8,0.6-1.2,0.9
		c-0.1,0-0.1,0.1,0,0.2C13,4.3,13.4,4.6,14,4.7C14.3,4.7,14.7,4.6,15.1,4.4C15,4.4,15,4.4,15.1,4.4z"/>
</g>
</svg>
