<?xml version="1.0" encoding="utf-8"?>
<!-- Generator: Adobe Illustrator 21.0.0, SVG Export Plug-In . SVG Version: 6.00 Build 0)  -->
<svg version="1.1" id="图层_1" xmlns="http://www.w3.org/2000/svg" xmlns:xlink="http://www.w3.org/1999/xlink" x="0px" y="0px"
	 viewBox="0 0 17.8 17.8" style="enable-background:new 0 0 17.8 17.8;" xml:space="preserve">
<style type="text/css">
	.st0{fill:#040000;}
</style>
<g>
	<path d="M16.4,11.7c1.9-1.4,1.3-2.1,1.3-2.1c-1.3-2.2-3.7,0.5-3.7,0.5c-0.4-0.2-0.8-0.3-1.1-0.5c0,0.1-0.1,0.1-0.2,0.2l0,0
		c0,0,0,0,0,0c-0.4,0.3-1,0.4-1,0.4c-0.2,0.1-1.2,0-1.2,0c-0.3,0-0.5,0.2-0.8,0.4c-0.5,0.2-1,0.2-1.5,0.1c-0.5-0.1-1-0.3-1.5-0.4
		c-0.1,0-0.2,0-0.3-0.1C5.1,10.7,3.8,10.5,3,9.5C3,9.4,2.9,9.4,2.8,9.3c0,0,0,0,0,0C2.7,9.1,2.6,9,2.6,8.8c0,0,0,0,0,0
		C0.2,9.9,0,11.7,0,11.7c0,4.2,5.3,4.2,5.3,4.2c3.8,0.2,8.5-2.5,8.5-2.5c3,2.3,3.5,0.8,3.5,0.8C18.2,12.9,16.4,11.7,16.4,11.7z
		 M3.7,12.9c-0.4,0-0.7-0.3-0.7-0.7c0-0.4,0.3-0.7,0.7-0.7c0.4,0,0.7,0.3,0.7,0.7C4.3,12.6,4,12.9,3.7,12.9z"/>
</g>
<path class="st0" d="M13.4,7.8c0-0.3,0-0.6,0-1c-0.1-1.1-0.2-1.9-1-2.7c-0.8-0.7-1.7-1.3-2.7-1.7C8.3,2,6.8,1.9,5.6,2.4
	c-1,0.4-1.8,1-2.5,1.8C2.7,4.8,2.3,5.4,2.2,6.1C2,6.8,2.1,7.5,2.4,8.2l0,0c0,0.1,0.1,0.1,0.1,0.2c0,0,0,0,0,0c0,0,0.1,0.1,0.1,0.1
	c0.1,0.1,0.1,0.3,0.2,0.4c0,0,0,0,0,0C2.9,9,3,9.1,3,9.2c0.8,1,2,1.2,3.1,0.7c0.1,0,0.2,0,0.3,0.1c0.5,0.1,1,0.3,1.5,0.4
	c0.5,0.1,1.1,0.1,1.5-0.1c0.3-0.1,0.5-0.3,0.8-0.4c0,0,1.1,0.1,1.2,0c0,0,0.7-0.1,1-0.4c0,0,0,0,0,0l0,0c0.1-0.1,0.1-0.1,0.2-0.2
	C13.2,8.9,13.4,8.4,13.4,7.8z M12.4,8.2L12.4,8.2c-0.2,0.7-0.8,1-1.5,0.9c0,0,0,0,0,0c0,0,0,0,0,0c0.1-0.4,0.2-0.8,0.2-1.2
	c0-0.2,0-0.4-0.1-0.6c-0.1-0.1-0.4-0.2-0.5-0.1c-0.2,0.1-0.3,0.3-0.3,0.5C10.1,8,10.2,8.4,10,8.8C9.6,9.5,8.9,9.6,8.2,9.5
	C7.4,9.4,6.7,9.1,6.5,8.2C6.4,8,6.4,7.8,6.2,7.6C6.1,7.5,5.8,7.4,5.7,7.4C5.4,7.5,5.3,7.7,5.4,8c0.1,0.3,0.2,0.6,0.4,1
	C4.9,8.9,4.2,8.7,3.6,8.2C3.1,7.7,2.9,7.1,3.1,6.5c0.4-1.7,1.5-2.8,3.2-3.3c1.7-0.5,4.4,0.3,5.5,1.7c0.6,0.7,0.9,1.6,0.8,2.4
	C12.6,7.6,12.5,7.9,12.4,8.2z"/>
<path class="st0" d="M12.6,7.6c0,0.3-0.1,0.6-0.1,0.9v0"/>
<path class="st0" d="M14.6,6.6c-0.1,0-0.1-0.1-0.1-0.1c0,0,0,0,0-0.1c0.2-0.4-0.1-0.8-0.1-0.8c0-0.1,0-0.1,0-0.2c0.1,0,0.1,0,0.2,0
	c0,0,0.5,0.5,0.2,1.1C14.7,6.5,14.6,6.6,14.6,6.6"/>
<path class="st0" d="M15,6.6c-0.1,0-0.1-0.1-0.1-0.1c0,0,0,0,0-0.1c0.3-0.6-0.2-1.2-0.2-1.3c0-0.1,0-0.1,0-0.2s0.1,0,0.2,0
	c0,0,0.7,0.7,0.3,1.5C15.1,6.5,15.1,6.6,15,6.6"/>
</svg>
