<?xml version="1.0" encoding="utf-8"?>
<!-- Generator: Adobe Illustrator 21.0.0, SVG Export Plug-In . SVG Version: 6.00 Build 0)  -->
<svg version="1.1" xmlns="http://www.w3.org/2000/svg" xmlns:xlink="http://www.w3.org/1999/xlink" x="0px" y="0px"
	 viewBox="0 0 640 640" style="enable-background:new 0 0 640 640;" xml:space="preserve">
<g>
	<path d="M131,492.7c-13.1,15.4-26,30.6-38.9,45.8c-6.7,7.9-13.4,15.9-20.2,23.8c-4.7,5.5-10.7,7.2-16.8,4.9
		c-5.9-2.3-8.6-6.6-8.5-14.2c0.3-30.6,0.7-61.3,0.9-91.9c0-2.6-0.5-5.4-1.6-7.8c-11.8-28.1-23.7-56.1-35.6-84.1
		c-3.1-7.2-2.3-12.4,2.3-16.8c4.7-4.5,11.1-5.1,17.8-1.6c25.5,13.2,51.1,26.4,76.6,39.7c1.3,0.7,2.5,1.3,4.2,2.1
		c0.8-1.4,1.6-2.6,2.4-3.9c20.7-33.5,46.6-62.2,79-84.8c50.8-35.4,106.2-44,165.6-28c42.6,11.5,80.6,31.9,113.6,61.2
		c6.6,5.8,12.3,12.7,18.1,19.3c6.6,7.6,7.9,16.2,5.3,26c-4.6,16.5-12.1,31.6-21,46.1c-19.6,31.9-44.1,59.4-74.4,81.6
		c-53.3,39-111.8,48.4-175,30.1c-32.8-9.5-62.7-24.7-90.2-44.7C133.5,494.4,132.3,493.6,131,492.7z M384.8,394.8
		c0-11.7-9-21.2-20-21.3c-11,0-19.7,9-19.7,20.4c0,11.6,9.1,21.2,20.1,21.4C376,415.5,384.8,406.2,384.8,394.8z"/>
	<path d="M604.8,174.5c4.5,7.6,8.9,15,13.4,22.4c3.9,6.4,7.9,12.9,12.1,19.1c1.6,2.4,1.4,3.5-0.9,5.1c-23.2,16.1-48.9,19.4-76,14.3
		c-30-5.7-55.2-20.4-75.5-43c-10-11.2-18.8-23.6-27.9-35.6c-10.9-14.4-21.6-29-32.4-43.6c-9.4-12.7-18.7-25.5-28.1-38.2
		c-0.6-0.8-0.9-1.7-1.6-3c1.4-0.1,2.3-0.3,3.2-0.1c35.7,8.2,71.3,16.6,107,24.8c17.8,4.1,35.5,8.2,53.3,12.3
		c1.1,0.3,2.1,1.1,3.2,1.6c-0.7,0.9-1.3,2.1-2.3,2.8c-15.5,11.8-31.1,23.6-46.7,35.3c-2.7,2-2.9,3.5-0.6,6.1
		c14.6,17.3,32.6,28.7,55.5,31.4c15.1,1.7,29.1-1.6,41.7-10.4C603,175.3,603.8,175,604.8,174.5z"/>
</g>
</svg>
